<?xml version="1.0" standalone="no"?>
<!DOCTYPE svg PUBLIC "-//W3C//DTD SVG 20010904//EN"
 "http://www.w3.org/TR/2001/REC-SVG-20010904/DTD/svg10.dtd">
<svg version="1.0" xmlns="http://www.w3.org/2000/svg"
 width="959.000000pt" height="817.000000pt" viewBox="0 0 959.000000 817.000000"
 preserveAspectRatio="xMidYMid meet">

<g transform="translate(0.000000,817.000000) scale(0.100000,-0.100000)"
fill="#000000" stroke="none">
<path d="M6805 8160 c-24 -10 -66 -53 -69 -71 -1 -8 -5 -20 -10 -27 -13 -21 2
-77 27 -98 37 -34 119 -64 192 -73 39 -5 74 -6 79 -3 5 3 210 6 455 7 408 2
496 6 628 31 56 11 85 81 55 135 -16 29 -28 36 -83 51 -71 18 -209 16 -334 -4
-38 -7 -131 -12 -205 -11 -114 0 -150 4 -230 26 -52 14 -133 31 -180 37 -99
12 -296 12 -325 0z"/>
<path d="M6920 7583 c-14 -2 -32 -6 -40 -9 -8 -3 -60 -7 -115 -10 -140 -5
-244 -23 -267 -46 -10 -10 -22 -18 -27 -18 -13 0 -22 -28 -11 -35 15 -9 12
-25 -5 -25 -46 0 14 -72 82 -99 133 -52 716 -55 844 -5 93 37 178 111 148 130
-6 4 -6 11 1 19 14 17 -60 84 -98 87 -15 0 -38 3 -52 4 -42 5 -433 11 -460 7z"/>
<path d="M4375 7065 c-153 -48 -239 -100 -300 -183 -66 -90 -157 -320 -180
-455 -4 -23 -13 -40 -23 -43 -50 -16 -120 -51 -144 -72 -35 -32 -44 -87 -24
-136 8 -20 22 -39 31 -42 15 -6 91 -94 211 -243 33 -42 80 -93 105 -114 38
-33 50 -38 84 -35 35 3 40 1 36 -17 -2 -11 -3 -100 -2 -197 1 -98 -2 -178 -7
-178 -23 0 -95 79 -147 162 -32 51 -69 110 -82 131 -24 38 -72 74 -108 81 -24
5 -233 52 -293 66 -73 17 -93 13 -154 -35 -32 -25 -60 -45 -64 -45 -9 0 -95
61 -129 91 -23 20 -40 26 -69 25 l-38 -1 -2 -285 -2 -285 -149 -1 c-83 0 -274
3 -425 7 -151 4 -417 9 -590 10 -354 2 -329 -3 -417 85 l-54 53 2 96 c2 112
-5 125 -67 125 -36 0 -46 -5 -63 -29 -12 -16 -21 -34 -21 -40 0 -21 -49 -32
-91 -21 -22 6 -43 8 -48 5 -5 -3 -17 -2 -27 2 -16 6 -17 23 -10 247 14 449 9
403 50 476 21 36 42 69 47 75 5 5 9 16 9 25 0 9 11 27 25 40 14 13 25 28 25
33 0 6 6 18 14 26 8 9 30 48 50 86 58 112 66 116 201 113 130 -3 148 4 124 48
-8 15 -44 54 -81 88 l-67 61 -268 -3 c-308 -3 -278 7 -338 -113 -19 -36 -45
-73 -59 -82 -23 -16 -26 -16 -42 0 -14 14 -16 30 -11 89 5 66 3 74 -18 94 -19
18 -29 20 -51 13 -16 -5 -35 -21 -44 -36 -8 -14 -34 -54 -58 -89 -23 -34 -45
-74 -49 -88 -3 -14 -39 -76 -79 -138 -41 -61 -74 -115 -74 -120 0 -4 -23 -45
-50 -92 -28 -47 -50 -91 -50 -99 0 -7 12 -25 26 -38 l27 -25 -6 -300 c-4 -199
-10 -305 -18 -314 -6 -7 -21 -16 -32 -20 -23 -7 -139 -58 -169 -75 -10 -5 -25
-9 -33 -9 -8 0 -15 -5 -15 -11 0 -5 -22 -19 -50 -31 l-50 -21 0 -157 0 -157
67 2 c109 4 107 6 109 -124 2 -121 11 -146 50 -137 13 4 24 1 26 -6 7 -20 34
12 42 48 3 16 8 69 11 118 3 49 8 92 10 96 2 4 53 6 112 4 l108 -2 -1 -43 c0
-24 -4 -70 -9 -102 -11 -79 4 -107 56 -107 26 0 41 6 48 18 5 9 7 77 5 151 -2
74 -2 142 1 150 5 16 443 18 2460 11 273 -1 530 3 580 9 89 10 482 18 489 10
2 -2 6 -25 8 -51 5 -46 5 -47 -26 -50 -46 -4 -56 -34 -56 -165 0 -109 1 -113
25 -129 21 -14 30 -14 55 -4 17 7 33 10 36 7 14 -14 -31 -340 -96 -687 -11
-58 -26 -150 -35 -205 -9 -55 -22 -109 -29 -120 -36 -55 -92 -260 -121 -440
-8 -55 -24 -152 -35 -215 -11 -63 -26 -155 -35 -205 -8 -49 -17 -115 -21 -145
-3 -30 -7 -66 -10 -80 -2 -14 -3 -117 -2 -230 2 -113 2 -489 0 -836 -3 -600
-2 -632 15 -639 38 -15 81 -26 158 -41 109 -20 117 -24 111 -40 -3 -8 -1 -14
5 -14 6 0 9 -6 6 -13 -3 -8 8 -27 23 -44 27 -29 33 -30 167 -43 146 -13 398
-8 491 10 29 5 56 9 60 8 22 -5 84 17 89 31 3 9 15 26 26 38 10 12 16 26 13
31 -3 6 7 17 24 26 17 8 28 10 25 5 -8 -11 -21 -11 277 -11 182 0 272 5 342
17 132 22 162 36 169 77 6 36 0 382 -8 493 -3 39 -7 102 -10 140 -5 81 -34
333 -40 355 -2 8 -9 101 -15 205 -5 105 -17 235 -25 290 -9 55 -18 140 -21
188 -2 49 -12 119 -20 155 -9 37 -18 81 -21 97 -9 62 -44 184 -109 390 -9 28
-25 68 -35 89 -11 22 -19 45 -19 50 0 6 -12 33 -26 60 -14 26 -32 65 -39 85
-14 41 -66 148 -111 231 -38 69 -173 309 -187 331 -8 13 -1 36 33 100 23 46
57 107 74 134 18 28 53 91 78 140 54 106 107 203 129 235 13 21 26 24 105 29
49 3 346 7 659 10 1116 8 1390 11 1405 18 8 3 23 5 33 4 9 -1 17 3 17 8 0 7
-70 11 -212 12 -274 2 -510 -1 -518 -6 -12 -7 -100 24 -133 47 -18 13 -43 35
-55 50 -15 17 -34 28 -49 28 -28 0 -97 17 -129 32 -16 7 -37 1 -97 -27 l-76
-37 -48 21 c-26 12 -61 29 -78 38 -18 9 -64 17 -115 19 -47 2 -103 8 -125 13
-22 6 -78 13 -125 16 -47 3 -139 12 -205 18 l-120 12 -3 118 -3 118 153 1 c84
0 254 1 378 1 124 1 315 0 425 -1 165 -3 221 0 323 17 122 21 149 30 231 76
55 31 81 54 81 71 0 7 9 22 21 33 19 18 21 31 23 155 1 126 0 136 -20 155 -12
11 -24 24 -25 30 -6 17 -265 26 -294 11 -14 -7 -25 -19 -25 -25 0 -7 -7 -18
-15 -25 -11 -9 -15 -33 -15 -91 0 -112 1 -112 -201 -132 -156 -16 -215 -20
-494 -32 -226 -10 -468 -9 -507 1 -18 5 -17 30 2 114 6 25 17 72 24 105 23
100 45 174 61 205 8 16 15 35 15 43 0 8 13 40 29 73 16 32 31 73 34 89 3 17 8
37 12 46 5 14 -7 20 -65 34 -39 10 -68 20 -65 24 13 13 123 73 195 107 131 62
201 99 211 110 5 7 7 36 3 67 l-7 55 -66 12 c-36 6 -84 15 -106 20 -22 5 -87
14 -145 20 -58 6 -123 16 -145 21 -22 5 -58 12 -80 14 -22 3 -93 12 -158 22
l-119 17 -76 66 c-72 62 -103 84 -288 196 -90 55 -167 74 -329 80 -99 3 -142
0 -180 -11z m289 -106 c54 -11 109 -25 121 -32 12 -6 46 -25 75 -40 81 -44
169 -105 238 -168 89 -79 127 -95 267 -114 66 -9 151 -23 189 -31 38 -9 117
-20 175 -25 58 -5 124 -13 145 -17 45 -8 39 -16 -34 -47 -25 -11 -88 -42 -140
-69 -98 -52 -198 -93 -260 -105 -19 -4 -47 -15 -61 -24 -15 -10 -64 -30 -110
-46 -46 -15 -138 -48 -204 -74 -66 -25 -160 -57 -210 -72 -49 -15 -115 -35
-145 -45 -30 -10 -109 -35 -175 -55 -111 -34 -277 -94 -369 -133 l-38 -16 -47
50 c-25 28 -80 92 -121 144 -41 51 -94 114 -118 141 l-43 47 23 16 c12 9 35
16 51 16 16 0 65 9 110 21 96 25 123 26 367 16 205 -8 346 -37 483 -96 27 -12
50 -21 53 -21 2 0 13 18 24 39 l20 39 -49 31 c-89 57 -145 81 -241 100 -120
25 -397 35 -532 19 -54 -6 -101 -8 -104 -5 -12 12 38 182 76 256 22 45 40 85
40 91 0 16 48 79 92 120 60 57 183 97 328 107 14 1 70 -7 124 -18z m-3774
-519 c12 23 40 27 40 6 0 -21 -55 -119 -74 -131 -13 -8 -20 -6 -30 8 -16 21
-26 22 -26 2 0 -8 -2 -15 -4 -15 -2 0 -11 -3 -20 -6 -33 -13 -11 55 42 125
l25 34 18 -22 c18 -22 18 -22 29 -1z m4685 -266 c33 -8 64 -19 69 -24 5 -5 -7
-46 -27 -97 -19 -48 -45 -122 -57 -163 -12 -41 -28 -95 -36 -120 -7 -25 -20
-94 -29 -154 -8 -59 -20 -127 -26 -150 -7 -25 -11 -120 -11 -246 l1 -204 -51
-104 c-28 -58 -80 -157 -115 -221 -36 -64 -84 -152 -108 -196 -23 -44 -54
-100 -67 -125 -76 -138 -92 -166 -98 -175 -17 -23 -19 -63 -5 -75 8 -7 15 -16
15 -21 0 -5 32 -57 70 -115 39 -59 70 -110 70 -114 0 -5 17 -37 39 -72 67
-110 143 -275 213 -458 32 -87 36 -109 13 -90 -8 7 -15 18 -15 25 0 6 -11 32
-24 57 -13 24 -27 55 -31 69 -12 41 -204 418 -240 472 -19 29 -35 59 -35 69 0
9 -5 20 -10 23 -6 4 -24 36 -41 73 -17 37 -43 80 -58 95 -33 36 -115 97 -130
97 -7 0 -21 8 -32 19 -37 34 -127 54 -225 48 -128 -7 -266 -32 -304 -56 -37
-22 -55 -19 -41 7 4 9 11 37 15 62 3 25 13 90 21 145 34 218 35 237 25 384 -5
80 -14 164 -20 186 -5 22 -10 60 -10 85 0 37 5 50 30 73 16 16 38 42 47 58 12
19 23 27 33 23 59 -23 171 -13 201 17 16 16 17 23 8 41 -9 17 -9 23 0 26 6 2
11 9 11 15 0 5 -3 8 -6 4 -4 -3 -21 0 -40 8 -25 10 -41 11 -68 3 -29 -9 -40
-8 -61 6 -45 29 -59 78 -60 197 0 91 3 110 19 128 11 12 24 21 29 21 6 0 18 7
27 15 15 14 21 14 52 1 19 -8 41 -22 48 -31 8 -10 24 -21 36 -25 25 -10 66 -2
59 11 -3 4 4 13 17 20 21 11 21 12 3 25 -10 8 -15 14 -9 14 5 1 0 8 -11 18
-17 14 -19 27 -17 80 3 54 6 62 24 62 23 0 129 29 143 40 6 4 71 26 145 50
166 53 297 99 415 144 103 39 137 42 220 20z m-4781 -122 c10 -32 4 -220 -8
-244 -15 -30 -81 -47 -102 -26 -18 18 -28 162 -16 228 7 39 11 46 37 51 58 13
83 10 89 -9z m6279 -329 l37 -5 0 -74 c0 -50 -5 -82 -15 -98 -24 -35 -124
-102 -175 -116 -79 -21 -242 -37 -350 -34 -486 14 -560 18 -552 26 6 6 127 11
273 13 352 4 557 26 603 65 16 12 36 111 39 189 l2 53 50 -7 c28 -3 67 -9 88
-12z m-2343 -1756 c30 -2 105 -74 143 -137 25 -43 55 -103 99 -200 11 -25 26
-58 34 -75 14 -32 27 -67 68 -185 43 -125 45 -133 62 -241 10 -69 16 -182 17
-339 2 -244 -5 -311 -43 -395 -10 -22 -23 -57 -30 -78 -20 -63 -55 -97 -101
-97 l-39 0 0 85 c0 47 4 161 10 253 11 191 18 500 12 542 -3 23 -12 31 -47 43
l-43 14 -6 -31 c-3 -17 -5 -127 -6 -245 0 -118 -2 -217 -4 -220 -2 -3 -7 -58
-10 -121 -3 -63 -8 -172 -12 -241 -3 -69 -1 -220 5 -335 6 -115 13 -330 16
-479 2 -148 9 -335 15 -414 6 -79 9 -150 6 -157 -7 -17 -60 -39 -131 -54 -72
-15 -424 -15 -438 -1 -6 6 -21 11 -32 11 -12 0 -32 11 -44 24 -20 22 -22 32
-21 137 5 333 2 1100 -4 1504 -7 426 -15 598 -30 612 -3 4 -24 1 -46 -6 l-41
-12 3 -324 c2 -178 0 -321 -4 -317 -15 16 -77 191 -86 247 -36 208 -36 185 2
385 34 179 46 230 87 390 11 41 27 107 35 145 15 67 44 127 81 170 31 35 109
95 124 95 8 0 30 10 49 22 19 12 53 25 75 28 34 6 187 4 275 -3z m281 -109
c45 -68 178 -322 224 -428 15 -36 48 -109 72 -163 24 -54 46 -110 49 -125 5
-27 5 -27 -55 -29 l-61 -2 0 32 c0 17 -14 82 -31 142 -16 61 -36 133 -43 161
-7 28 -22 71 -33 95 -12 24 -29 69 -38 99 -18 55 -86 192 -110 220 -22 26 -36
60 -26 60 6 0 29 -28 52 -62z m522 -1089 c59 -69 59 -71 52 -165 -6 -67 -12
-91 -29 -111 -22 -25 -25 -26 -157 -26 -74 0 -140 2 -146 6 -7 4 -6 23 4 59 9
35 13 89 11 158 l-3 105 50 5 c28 3 81 4 120 4 66 -2 71 -3 98 -35z m-1473
-573 c50 -11 51 -14 53 -179 1 -85 -1 -159 -5 -163 -4 -4 -41 -9 -81 -11 l-74
-4 -7 47 c-7 56 -8 328 -1 336 3 3 24 -1 48 -8 23 -7 53 -15 67 -18z m1538
-53 c41 -5 42 -6 43 -47 1 -22 3 -52 4 -66 1 -14 4 -59 5 -100 l3 -75 -53 -8
c-34 -4 -66 -3 -87 4 -22 7 -105 10 -226 8 -248 -3 -320 0 -332 12 -5 5 -12
59 -13 119 l-4 109 39 6 c89 14 221 38 253 46 35 8 289 3 368 -8z m-31 -573
c99 2 112 0 121 -17 5 -10 10 -81 11 -159 l2 -141 -93 -8 c-51 -5 -145 -9
-208 -10 -63 -1 -187 -4 -275 -6 l-160 -4 -5 153 c-3 97 -1 156 5 161 27 20
149 31 287 26 101 -3 149 -2 153 6 4 6 16 8 29 3 11 -4 71 -6 133 -4z m-1532
-41 c5 -5 24 -9 42 -9 l33 0 1 -57 c1 -64 -2 -267 -4 -270 -1 0 -38 2 -82 5
l-80 7 -3 150 c-4 193 -2 198 46 189 20 -3 41 -10 47 -15z"/>
<path d="M6860 7051 c-112 -17 -160 -37 -186 -76 -35 -53 18 -126 105 -144
150 -32 453 -48 567 -31 43 7 102 16 129 20 28 4 77 18 111 30 50 18 62 27 72
53 8 21 9 33 2 35 -5 2 -10 11 -10 20 0 18 -73 62 -103 62 -10 0 -32 8 -50 18
-27 14 -63 17 -237 19 -113 1 -225 3 -250 5 -25 3 -92 -3 -150 -11z"/>
<path d="M2218 6544 c-4 -3 -97 -7 -208 -8 -187 -1 -203 -2 -216 -20 -12 -17
-11 -24 8 -55 12 -20 35 -61 51 -91 16 -30 42 -73 56 -95 15 -22 31 -49 37
-59 26 -48 51 -56 189 -57 72 0 137 0 145 1 39 2 416 -11 430 -15 8 -3 59 -1
113 4 53 5 110 6 125 2 32 -10 97 8 97 26 0 19 -296 311 -340 336 -22 12 -213
27 -311 25 -49 -1 -107 1 -129 5 -22 5 -44 5 -47 1z"/>
<path d="M1492 6505 c-20 -25 -21 -35 -15 -138 3 -62 10 -120 15 -129 6 -14
21 -18 58 -18 37 0 51 4 57 18 10 21 11 267 1 277 -4 4 -27 10 -51 12 -39 5
-46 2 -65 -22z"/>
<path d="M6989 6519 c-107 -4 -131 -9 -162 -28 -20 -12 -37 -29 -37 -37 0 -8
-5 -23 -12 -33 -9 -15 -7 -25 8 -52 33 -56 75 -74 186 -76 53 -2 116 1 140 6
24 5 77 16 119 25 107 21 132 34 124 63 -4 18 -1 23 15 23 25 0 25 5 -1 46
-14 23 -28 34 -44 34 -12 0 -25 6 -28 14 -7 18 -124 24 -308 15z"/>
<path d="M1667 6062 c-14 -15 -17 -41 -17 -133 0 -76 4 -119 12 -127 15 -15
104 -16 114 -1 11 19 6 250 -7 265 -17 21 -83 18 -102 -4z"/>
<path d="M2123 6069 c-16 -6 -23 -19 -28 -56 -5 -42 2 -223 9 -230 1 -2 26 -4
55 -5 37 -2 55 2 61 12 14 22 13 257 -1 266 -22 13 -75 21 -96 13z"/>
<path d="M2477 6073 c-29 -7 -37 -46 -37 -167 0 -133 5 -141 76 -133 25 2 51
10 57 16 12 12 11 176 -3 236 -12 52 -34 63 -93 48z"/>
<path d="M2799 6061 c-21 -17 -25 -30 -30 -123 -9 -134 -1 -152 65 -156 27 -2
53 1 57 5 5 5 10 64 10 131 1 105 -1 125 -16 142 -23 25 -56 25 -86 1z"/>
<path d="M1326 6051 c-15 -17 -17 -35 -13 -134 2 -63 8 -120 11 -126 10 -15
91 -14 104 2 13 16 13 248 0 265 -16 19 -82 15 -102 -7z"/>
<path d="M6852 6051 c-13 -12 -20 -25 -16 -35 4 -11 1 -16 -10 -16 -18 0 -20
-13 -6 -40 13 -25 62 -37 141 -36 71 2 125 26 115 51 -3 8 -1 17 3 19 16 10
-1 54 -25 65 -14 6 -60 11 -102 11 -60 -1 -82 -5 -100 -19z"/>
<path d="M1690 5616 c-29 -9 -35 -17 -42 -50 -8 -38 -5 -223 3 -230 2 -2 14
-8 25 -14 24 -13 83 0 96 20 13 22 10 242 -4 260 -19 23 -40 27 -78 14z"/>
<path d="M2143 5613 c-12 -2 -27 -11 -33 -19 -15 -18 -15 -253 0 -268 17 -17
93 -9 107 10 9 12 13 57 13 141 0 111 -2 123 -19 133 -20 10 -29 11 -68 3z"/>
<path d="M2790 5588 c-18 -29 -19 -45 -15 -137 6 -122 18 -146 69 -135 17 4
36 14 42 22 15 21 26 239 13 263 -7 14 -21 19 -49 19 -35 0 -43 -5 -60 -32z"/>
<path d="M2454 5596 c-16 -13 -19 -27 -19 -108 -1 -97 7 -154 22 -169 6 -6 27
-6 49 -1 33 6 41 13 51 42 15 43 17 204 3 231 -13 23 -76 26 -106 5z"/>
<path d="M690 5061 c-12 -8 -14 -31 -12 -113 3 -112 8 -122 57 -113 35 6 60
-9 78 -45 18 -37 68 -39 96 -5 19 25 20 36 15 138 -3 63 -11 117 -17 124 -16
16 -197 28 -217 14z"/>
<path d="M990 5045 c-15 -18 -35 -223 -26 -260 6 -24 8 -24 116 -23 l110 1 15
30 c21 43 21 214 -1 245 -14 20 -23 22 -108 22 -72 0 -96 -4 -106 -15z"/>
<path d="M1286 5041 c-18 -21 -26 -57 -32 -152 -6 -74 -4 -82 17 -105 15 -16
34 -24 54 -24 18 0 56 -5 85 -10 83 -16 90 -5 90 144 0 162 -2 164 -115 163
-64 -1 -89 -5 -99 -16z"/>
<path d="M2368 5053 c-35 -2 -61 -10 -70 -20 -20 -24 -18 -237 2 -257 35 -34
213 -17 224 22 10 33 10 232 0 242 -12 12 -82 18 -156 13z"/>
<path d="M2683 5053 c-44 -3 -76 -9 -83 -17 -11 -15 -30 -221 -20 -235 32 -50
220 -35 247 18 8 16 10 54 6 115 -6 98 -20 128 -57 124 -12 -1 -53 -4 -93 -5z"/>
<path d="M1682 5038 c-7 -7 -12 -43 -12 -93 0 -118 18 -129 102 -65 58 44 72
47 94 25 38 -37 59 -12 67 78 l6 67 -122 0 c-82 0 -127 -4 -135 -12z"/>
<path d="M2006 5037 c-22 -16 -35 -75 -36 -163 0 -98 9 -105 135 -106 129 -2
129 -1 121 146 -4 60 -11 116 -18 123 -14 18 -177 18 -202 0z"/>
<path d="M2916 5028 c-12 -17 -16 -49 -16 -134 0 -95 3 -113 18 -127 22 -20
51 -22 86 -5 32 14 37 31 41 125 2 40 7 87 10 104 10 44 -8 59 -71 59 -43 0
-56 -4 -68 -22z"/>
<path d="M3304 5040 c-17 -7 -23 -20 -28 -62 -9 -82 -11 -212 -3 -225 10 -16
111 -15 130 1 11 8 17 45 22 137 5 108 4 127 -10 139 -19 16 -82 22 -111 10z"/>
<path d="M3476 5031 c-13 -14 -16 -42 -16 -137 0 -80 4 -124 12 -132 17 -17
75 -15 108 5 29 17 29 17 32 131 2 67 -1 120 -7 127 -5 7 -33 15 -61 18 -42 5
-55 2 -68 -12z"/>
<path d="M3727 5017 c-11 -17 -14 -49 -13 -124 1 -93 4 -104 26 -128 27 -29
58 -32 100 -10 24 12 30 22 30 48 1 17 3 70 5 117 5 121 6 120 -70 120 -54 0
-65 -3 -78 -23z"/>
<path d="M3922 5028 c-18 -18 -16 -242 2 -257 15 -13 93 -5 114 12 17 13 17
228 0 245 -16 16 -100 16 -116 0z"/>
<path d="M7700 4815 c-14 -17 -8 -17 1218 -20 625 -1 672 0 672 16 0 16 -65
17 -939 18 -823 1 -940 -1 -951 -14z"/>
<path d="M9083 3979 c-35 -36 -105 -48 -186 -33 -68 13 -144 7 -185 -15 -18
-10 -96 -90 -122 -126 -33 -46 -114 -85 -175 -85 -59 0 -202 -27 -250 -47 -22
-10 -74 -44 -115 -77 -75 -59 -159 -106 -192 -106 -63 0 -129 -76 -107 -123
13 -29 85 -65 119 -60 44 6 1003 5 1368 -3 l352 -7 0 322 0 321 -27 6 c-16 3
-34 8 -42 10 -8 3 -53 -6 -100 -20 -119 -33 -157 -38 -172 -20 -7 8 -31 24
-54 34 -24 11 -45 26 -49 35 -8 21 -38 19 -63 -6z"/>
<path d="M7115 3601 c-51 -13 -110 -48 -143 -86 -27 -30 -32 -43 -32 -89 0
-85 3 -86 227 -86 178 0 192 1 217 21 19 15 25 27 21 40 -4 11 -2 19 4 19 21
0 11 63 -15 98 -37 48 -134 92 -199 91 -27 -1 -63 -4 -80 -8z"/>
<path d="M3893 857 c0 -24 3 -27 33 -27 19 0 34 5 34 10 0 6 -11 10 -25 10
-13 0 -28 7 -33 17 -8 13 -9 11 -9 -10z"/>
<path d="M3900 795 c0 -8 7 -15 15 -15 9 0 12 6 9 15 -4 8 -10 15 -15 15 -5 0
-9 -7 -9 -15z"/>
<path d="M5205 800 c3 -5 8 -10 11 -10 2 0 4 5 4 10 0 6 -5 10 -11 10 -5 0 -7
-4 -4 -10z"/>
<path d="M5520 760 c-13 -8 -13 -10 2 -10 9 0 20 5 23 10 8 13 -5 13 -25 0z"/>
<path d="M5142 748 c-8 -10 -3 -13 18 -14 24 -1 26 1 15 12 -17 17 -20 17 -33
2z"/>
<path d="M3977 719 c7 -7 15 -10 18 -7 3 3 -2 9 -12 12 -14 6 -15 5 -6 -5z"/>
<path d="M5270 695 c0 -8 7 -15 15 -15 9 0 12 6 9 15 -4 8 -10 15 -15 15 -5 0
-9 -7 -9 -15z"/>
<path d="M3818 403 c7 -3 16 -2 19 1 4 3 -2 6 -13 5 -11 0 -14 -3 -6 -6z"/>
<path d="M4758 373 c7 -3 16 -2 19 1 4 3 -2 6 -13 5 -11 0 -14 -3 -6 -6z"/>
<path d="M4913 363 c9 -2 23 -2 30 0 6 3 -1 5 -18 5 -16 0 -22 -2 -12 -5z"/>
<path d="M3910 349 c0 -5 5 -7 10 -4 6 3 10 8 10 11 0 2 -4 4 -10 4 -5 0 -10
-5 -10 -11z"/>
<path d="M4370 324 c0 -8 5 -12 10 -9 6 3 10 10 10 16 0 5 -4 9 -10 9 -5 0
-10 -7 -10 -16z"/>
<path d="M5238 333 c6 -2 18 -2 25 0 6 3 1 5 -13 5 -14 0 -19 -2 -12 -5z"/>
<path d="M4111 308 c17 -34 19 -34 19 -5 0 18 -5 27 -15 27 -13 0 -14 -4 -4
-22z"/>
<path d="M5037 283 c-7 -11 10 -40 18 -31 4 4 3 14 -3 24 -5 9 -12 12 -15 7z"/>
<path d="M3710 270 c0 -5 5 -10 10 -10 6 0 10 5 10 10 0 6 -4 10 -10 10 -5 0
-10 -4 -10 -10z"/>
<path d="M4253 273 c-37 -5 -45 -23 -10 -23 33 0 67 11 67 21 0 5 -6 8 -12 7
-7 0 -28 -3 -45 -5z"/>
<path d="M5195 270 c-3 -6 1 -7 9 -4 18 7 21 14 7 14 -6 0 -13 -4 -16 -10z"/>
<path d="M5386 263 c-3 -4 -6 -12 -6 -19 0 -13 32 -14 42 0 3 5 20 9 38 8 18
0 29 2 26 5 -8 8 -92 13 -100 6z"/>
<path d="M3898 233 c7 -3 16 -2 19 1 4 3 -2 6 -13 5 -11 0 -14 -3 -6 -6z"/>
<path d="M5177 200 c6 -23 24 -22 31 1 3 8 1 11 -3 7 -5 -4 -14 -3 -21 3 -9 8
-11 5 -7 -11z"/>
<path d="M5088 193 c7 -3 16 -2 19 1 4 3 -2 6 -13 5 -11 0 -14 -3 -6 -6z"/>
<path d="M5380 191 c0 -5 9 -7 20 -4 11 3 20 7 20 9 0 2 -9 4 -20 4 -11 0 -20
-4 -20 -9z"/>
<path d="M5730 196 c0 -2 9 -6 20 -9 11 -3 20 -1 20 4 0 5 -9 9 -20 9 -11 0
-20 -2 -20 -4z"/>
</g>
</svg>
